<?xml version="1.0" encoding="UTF-8"?>
<!DOCTYPE svg PUBLIC "-//W3C//DTD SVG 1.1//EN" "http://www.w3.org/Graphics/SVG/1.1/DTD/svg11.dtd">
<svg xmlns="http://www.w3.org/2000/svg" version="1.1" width="1024px" height="512px" style="shape-rendering:geometricPrecision; text-rendering:geometricPrecision; image-rendering:optimizeQuality; fill-rule:evenodd; clip-rule:evenodd" xmlns:xlink="http://www.w3.org/1999/xlink">
<g><path style="opacity:0.97" fill="#000000" d="M 1023.5,270.5 C 1023.5,293.5 1023.5,316.5 1023.5,339.5C 682.166,338.584 340.833,337.584 -0.5,336.5C -0.5,325.5 -0.5,314.5 -0.5,303.5C 0.329591,295.01 0.829591,286.343 1,277.5C 0.840011,274.491 2.00668,272.325 4.5,271C 26.4377,267.515 48.271,268.015 70,272.5C 72.6071,264.072 71.6071,256.072 67,248.5C 61.6878,242.856 56.0211,237.523 50,232.5C 46.8891,228.613 44.5557,224.28 43,219.5C 42.3333,216.833 42.3333,214.167 43,211.5C 44.3876,210.446 45.8876,210.28 47.5,211C 48.3384,216.537 50.1717,221.704 53,226.5C 57.8653,231.7 63.0319,236.533 68.5,241C 69.4835,241.591 70.1501,241.257 70.5,240C 69.7207,236.158 68.8873,232.325 68,228.5C 62.1175,216.736 56.7841,204.736 52,192.5C 50.9102,188.384 50.0769,184.218 49.5,180C 49.5229,176.927 50.5229,174.26 52.5,172C 53.7839,171.316 54.9505,171.483 56,172.5C 56.2526,183.653 58.5859,194.319 63,204.5C 63.9059,197.774 67.0726,192.441 72.5,188.5C 76.0551,190.076 77.2218,192.743 76,196.5C 73.9996,201.001 72.4996,205.668 71.5,210.5C 73.8608,222.943 76.6942,235.277 80,247.5C 80.3333,251.833 80.6667,256.167 81,260.5C 86.1033,250.624 92.4366,241.624 100,233.5C 101,231.5 102,229.5 103,227.5C 103.474,220.82 103.307,214.154 102.5,207.5C 105.48,207.241 107.313,208.574 108,211.5C 109.895,217.34 110.895,223.34 111,229.5C 114.172,224.158 118.672,220.491 124.5,218.5C 127.64,219.734 129.64,222.068 130.5,225.5C 121.345,233.822 112.678,242.656 104.5,252C 99.5782,255.378 94.7449,258.878 90,262.5C 88.1192,266.307 86.9526,270.307 86.5,274.5C 92.8421,274.666 99.1754,274.5 105.5,274C 115.942,272.139 126.276,269.806 136.5,267C 143.17,266.547 149.837,266.047 156.5,265.5C 180.822,267.388 205.155,269.054 229.5,270.5C 235.167,270.333 240.833,270.167 246.5,270C 259.764,267.38 273.097,265.214 286.5,263.5C 290.249,255.004 294.249,246.67 298.5,238.5C 294.939,232.434 290.439,227.101 285,222.5C 281.051,215.919 281.884,210.086 287.5,205C 293.287,202.606 298.954,199.94 304.5,197C 306.642,193.205 309.142,189.705 312,186.5C 317.969,190.008 318.969,194.674 315,200.5C 308.078,206.705 300.578,212.039 292.5,216.5C 295.109,219.144 298.109,221.311 301.5,223C 304.372,225.537 306.872,228.37 309,231.5C 309.667,234.833 309.667,238.167 309,241.5C 304.36,249.284 299.86,257.117 295.5,265C 312.91,270.269 330.576,274.436 348.5,277.5C 352.22,277.384 355.887,276.884 359.5,276C 382.493,267.381 406.16,264.381 430.5,267C 440.418,269.979 450.418,272.646 460.5,275C 468.805,275.944 477.139,276.444 485.5,276.5C 511.444,273.546 537.444,271.046 563.5,269C 564.624,268.751 565.624,268.251 566.5,267.5C 563.15,259.451 560.817,251.118 559.5,242.5C 560.02,239.088 560.853,235.755 562,232.5C 565.459,227.417 567.959,221.917 569.5,216C 567.917,210.006 565.917,204.172 563.5,198.5C 573.751,201.645 577.918,208.645 576,219.5C 573.293,228.404 570.46,237.237 567.5,246C 569.159,250.497 570.993,254.997 573,259.5C 573.936,263.114 574.436,266.78 574.5,270.5C 577.206,270.575 579.873,270.908 582.5,271.5C 578.018,259.556 578.518,247.889 584,236.5C 584.167,234.833 584.333,233.167 584.5,231.5C 583.197,226.561 582.197,221.561 581.5,216.5C 584.099,216.549 586.266,217.549 588,219.5C 589.7,222.467 590.867,225.633 591.5,229C 589.913,237.18 588.247,245.347 586.5,253.5C 587.387,259.436 588.721,265.269 590.5,271C 591.944,273.034 593.944,273.868 596.5,273.5C 597.749,266.748 599.416,260.081 601.5,253.5C 600.191,249.741 599.191,245.907 598.5,242C 598.833,240.833 599.167,239.667 599.5,238.5C 606.111,243.899 608.611,250.899 607,259.5C 606.132,263.27 604.966,266.936 603.5,270.5C 603.745,273.168 605.079,275.002 607.5,276C 613.5,276.667 619.5,276.667 625.5,276C 637.5,272.667 649.5,269.333 661.5,266C 688.314,263.437 714.648,265.771 740.5,273C 759.833,273.667 779.167,273.667 798.5,273C 802.514,272.163 806.514,271.329 810.5,270.5C 810.822,266.253 809.989,262.253 808,258.5C 803.71,257.883 799.543,256.717 795.5,255C 793.254,253.743 791.921,251.91 791.5,249.5C 793.92,249.292 796.253,249.626 798.5,250.5C 798.947,247.112 798.281,243.779 796.5,240.5C 795.758,239.713 794.925,239.047 794,238.5C 790.922,240.931 787.422,241.931 783.5,241.5C 783.178,239.278 783.845,237.444 785.5,236C 787.833,235 790.167,234 792.5,233C 791.672,232.085 790.672,231.419 789.5,231C 782.854,230.052 776.354,228.552 770,226.5C 768.099,227.536 766.265,228.702 764.5,230C 761,230.5 759.5,229 760,225.5C 761.731,223.383 763.898,221.883 766.5,221C 770.108,221.866 773.774,222.533 777.5,223C 775.971,219.971 773.638,217.805 770.5,216.5C 767.243,217.551 763.91,218.218 760.5,218.5C 760.26,214.422 762.26,212.256 766.5,212C 764.926,210.174 764.093,208.007 764,205.5C 762.237,204.056 760.237,203.056 758,202.5C 757.51,201.207 757.343,199.873 757.5,198.5C 760.807,198.063 763.807,198.73 766.5,200.5C 768.598,203.545 770.098,206.878 771,210.5C 776.747,212.579 780.914,216.412 783.5,222C 787.133,222.82 790.133,224.653 792.5,227.5C 792.833,227.333 793.167,227.167 793.5,227C 790.081,223.284 789.748,219.451 792.5,215.5C 794.149,216.648 795.649,217.981 797,219.5C 797.607,223.381 799.274,226.714 802,229.5C 802.201,226.485 801.868,223.485 801,220.5C 796.311,217.311 792.477,213.311 789.5,208.5C 791.841,207.288 794.007,207.622 796,209.5C 796.667,208.167 796.667,206.833 796,205.5C 794.634,203.63 793.467,201.63 792.5,199.5C 794.713,197.281 796.88,197.614 799,200.5C 800.916,203.898 801.916,207.565 802,211.5C 804.73,215.791 806.563,215.457 807.5,210.5C 811.158,208.676 812.825,209.843 812.5,214C 811.538,221.498 811.038,228.998 811,236.5C 812.667,238.167 814.333,239.833 816,241.5C 817.242,247.871 818.576,254.204 820,260.5C 821,251.846 821.333,243.179 821,234.5C 820.212,231.037 818.546,228.037 816,225.5C 814.524,220.924 814.19,216.257 815,211.5C 816.011,210.663 817.178,210.33 818.5,210.5C 818.952,214.163 819.452,217.83 820,221.5C 820.26,223.618 821.26,225.284 823,226.5C 823.944,225.737 824.444,224.737 824.5,223.5C 823.026,220.72 821.693,217.886 820.5,215C 821.42,209.07 823.42,203.57 826.5,198.5C 827.002,197.479 827.668,197.312 828.5,198C 830.357,199.182 831.357,200.849 831.5,203C 830.493,205.517 829.326,208.017 828,210.5C 827.333,212.167 827.333,213.833 828,215.5C 830.079,211.043 833.579,209.043 838.5,209.5C 838.702,211.989 838.202,214.323 837,216.5C 834.626,218.51 832.293,220.51 830,222.5C 829.584,226.914 828.75,231.248 827.5,235.5C 827.906,242.503 828.239,249.503 828.5,256.5C 830.833,255.5 832.5,253.833 833.5,251.5C 829.87,246.436 829.537,241.103 832.5,235.5C 835.617,232.597 837.95,233.097 839.5,237C 838.99,239.706 838.323,242.373 837.5,245C 838.007,247.341 839.174,247.841 841,246.5C 841.671,238.437 842.671,230.437 844,222.5C 845.143,219.085 846.81,218.751 849,221.5C 848.373,225.111 848.04,228.777 848,232.5C 848.803,229.756 849.803,227.089 851,224.5C 853.18,223.654 854.68,222.154 855.5,220C 852.995,215.79 852.161,211.29 853,206.5C 854.356,205.62 855.856,205.286 857.5,205.5C 858.131,209.804 858.631,214.137 859,218.5C 862.301,218.499 865.801,218.666 869.5,219C 872.003,220.784 872.003,222.451 869.5,224C 867.048,224.29 864.715,224.956 862.5,226C 864.326,226.292 866.159,226.125 868,225.5C 871.748,226.708 875.581,227.541 879.5,228C 880.435,230.381 880.768,232.881 880.5,235.5C 877.774,235.736 875.441,234.903 873.5,233C 867.296,232.773 861.129,232.273 855,231.5C 852.412,233.396 851.245,236.063 851.5,239.5C 857.598,239.679 863.598,240.512 869.5,242C 872.704,247.09 871.204,249.923 865,250.5C 862.067,249.229 859.401,247.562 857,245.5C 852.153,247.171 847.653,249.504 843.5,252.5C 844.79,253.408 846.123,253.241 847.5,252C 851.833,251.333 856.167,251.333 860.5,252C 862.007,252.837 862.507,254.004 862,255.5C 859.103,259.713 855.603,260.38 851.5,257.5C 847.305,259.09 842.972,260.257 838.5,261C 835.931,263.479 833.598,266.146 831.5,269C 841.66,271.86 851.994,273.527 862.5,274C 868.64,271.772 874.974,270.439 881.5,270C 911.371,267.104 941.037,268.438 970.5,274C 988.368,275.424 1006.03,274.258 1023.5,270.5 Z M 813.5,258.5 C 812.59,256.981 811.757,255.315 811,253.5C 807.719,252.206 805.052,250.206 803,247.5C 801,242.833 801,238.167 803,233.5C 804.706,237.567 807.373,240.9 811,243.5C 811.678,248.54 812.511,253.54 813.5,258.5 Z M 813.5,258.5 C 814.81,261.399 816.143,264.399 817.5,267.5C 817.167,267.833 816.833,268.167 816.5,268.5C 814.024,265.717 813.024,262.384 813.5,258.5 Z"/></g>
</svg>
