<svg width="1024" height="169" viewBox="0 0 1024 169" fill="none" xmlns="http://www.w3.org/2000/svg">
<path opacity="0.97" fill-rule="evenodd" clip-rule="evenodd" d="M1023.5 99.5C1023.5 122.5 1023.5 145.5 1023.5 168.5C682.166 167.584 340.833 166.584 -0.5 165.5C-0.5 154.5 -0.5 143.5 -0.5 132.5C0.329591 124.01 0.829591 115.343 1 106.5C0.840011 103.491 2.00668 101.325 4.5 100C26.4377 96.515 48.271 97.015 70 101.5C72.6071 93.072 71.6071 85.072 67 77.5C61.6878 71.856 56.0211 66.523 50 61.5C46.8891 57.613 44.5557 53.28 43 48.5C42.3333 45.833 42.3333 43.167 43 40.5C44.3876 39.446 45.8876 39.28 47.5 40C48.3384 45.537 50.1717 50.704 53 55.5C57.8653 60.7 63.0319 65.533 68.5 70C69.4835 70.591 70.1501 70.257 70.5 69C69.7207 65.158 68.8873 61.325 68 57.5C62.1175 45.736 56.7841 33.736 52 21.5C50.9102 17.384 50.0769 13.218 49.5 8.99999C49.5229 5.92699 50.5229 3.25999 52.5 0.999995C53.7839 0.315995 54.9505 0.482995 56 1.49999C56.2526 12.653 58.5859 23.319 63 33.5C63.9059 26.774 67.0726 21.441 72.5 17.5C76.0551 19.076 77.2218 21.743 76 25.5C73.9996 30.001 72.4996 34.668 71.5 39.5C73.8608 51.943 76.6942 64.277 80 76.5C80.3333 80.833 80.6667 85.167 81 89.5C86.1033 79.624 92.4366 70.624 100 62.5C101 60.5 102 58.5 103 56.5C103.474 49.82 103.307 43.154 102.5 36.5C105.48 36.241 107.313 37.574 108 40.5C109.895 46.34 110.895 52.34 111 58.5C114.172 53.158 118.672 49.491 124.5 47.5C127.64 48.734 129.64 51.068 130.5 54.5C121.345 62.822 112.678 71.656 104.5 81C99.5782 84.378 94.7449 87.878 90 91.5C88.1192 95.307 86.9526 99.307 86.5 103.5C92.8421 103.666 99.1754 103.5 105.5 103C115.942 101.139 126.276 98.806 136.5 96C143.17 95.547 149.837 95.047 156.5 94.5C180.822 96.388 205.155 98.054 229.5 99.5C235.167 99.333 240.833 99.167 246.5 99C259.764 96.38 273.097 94.214 286.5 92.5C290.249 84.004 294.249 75.67 298.5 67.5C294.939 61.434 290.439 56.101 285 51.5C281.051 44.919 281.884 39.086 287.5 34C293.287 31.606 298.954 28.94 304.5 26C306.642 22.205 309.142 18.705 312 15.5C317.969 19.008 318.969 23.674 315 29.5C308.078 35.705 300.578 41.039 292.5 45.5C295.109 48.144 298.109 50.311 301.5 52C304.372 54.537 306.872 57.37 309 60.5C309.667 63.833 309.667 67.167 309 70.5C304.36 78.284 299.86 86.117 295.5 94C312.91 99.269 330.576 103.436 348.5 106.5C352.22 106.384 355.887 105.884 359.5 105C382.493 96.381 406.16 93.381 430.5 96C440.418 98.979 450.418 101.646 460.5 104C468.805 104.944 477.139 105.444 485.5 105.5C511.444 102.546 537.444 100.046 563.5 98C564.624 97.751 565.624 97.251 566.5 96.5C563.15 88.451 560.817 80.118 559.5 71.5C560.02 68.088 560.853 64.755 562 61.5C565.459 56.417 567.959 50.917 569.5 45C567.917 39.006 565.917 33.172 563.5 27.5C573.751 30.645 577.918 37.645 576 48.5C573.293 57.404 570.46 66.237 567.5 75C569.159 79.497 570.993 83.997 573 88.5C573.936 92.114 574.436 95.78 574.5 99.5C577.206 99.575 579.873 99.908 582.5 100.5C578.018 88.556 578.518 76.889 584 65.5C584.167 63.833 584.333 62.167 584.5 60.5C583.197 55.561 582.197 50.561 581.5 45.5C584.099 45.549 586.266 46.549 588 48.5C589.7 51.467 590.867 54.633 591.5 58C589.913 66.18 588.247 74.347 586.5 82.5C587.387 88.436 588.721 94.269 590.5 100C591.944 102.034 593.944 102.868 596.5 102.5C597.749 95.748 599.416 89.081 601.5 82.5C600.191 78.741 599.191 74.907 598.5 71C598.833 69.833 599.167 68.667 599.5 67.5C606.111 72.899 608.611 79.899 607 88.5C606.132 92.27 604.966 95.936 603.5 99.5C603.745 102.168 605.079 104.002 607.5 105C613.5 105.667 619.5 105.667 625.5 105C637.5 101.667 649.5 98.333 661.5 95C688.314 92.437 714.648 94.771 740.5 102C759.833 102.667 779.167 102.667 798.5 102C802.514 101.163 806.514 100.329 810.5 99.5C810.822 95.253 809.989 91.253 808 87.5C803.71 86.883 799.543 85.717 795.5 84C793.254 82.743 791.921 80.91 791.5 78.5C793.92 78.292 796.253 78.626 798.5 79.5C798.947 76.112 798.281 72.779 796.5 69.5C795.758 68.713 794.925 68.047 794 67.5C790.922 69.931 787.422 70.931 783.5 70.5C783.178 68.278 783.845 66.444 785.5 65C787.833 64 790.167 63 792.5 62C791.672 61.085 790.672 60.419 789.5 60C782.854 59.052 776.354 57.552 770 55.5C768.099 56.536 766.265 57.702 764.5 59C761 59.5 759.5 58 760 54.5C761.731 52.383 763.898 50.883 766.5 50C770.108 50.866 773.774 51.533 777.5 52C775.971 48.971 773.638 46.805 770.5 45.5C767.243 46.551 763.91 47.218 760.5 47.5C760.26 43.422 762.26 41.256 766.5 41C764.926 39.174 764.093 37.007 764 34.5C762.237 33.056 760.237 32.056 758 31.5C757.51 30.207 757.343 28.873 757.5 27.5C760.807 27.063 763.807 27.73 766.5 29.5C768.598 32.545 770.098 35.878 771 39.5C776.747 41.579 780.914 45.412 783.5 51C787.133 51.82 790.133 53.653 792.5 56.5C792.833 56.333 793.167 56.167 793.5 56C790.081 52.284 789.748 48.451 792.5 44.5C794.149 45.648 795.649 46.981 797 48.5C797.607 52.381 799.274 55.714 802 58.5C802.201 55.485 801.868 52.485 801 49.5C796.311 46.311 792.477 42.311 789.5 37.5C791.841 36.288 794.007 36.622 796 38.5C796.667 37.167 796.667 35.833 796 34.5C794.634 32.63 793.467 30.63 792.5 28.5C794.713 26.281 796.88 26.614 799 29.5C800.916 32.898 801.916 36.565 802 40.5C804.73 44.791 806.563 44.457 807.5 39.5C811.158 37.676 812.825 38.843 812.5 43C811.538 50.498 811.038 57.998 811 65.5C812.667 67.167 814.333 68.833 816 70.5C817.242 76.871 818.576 83.204 820 89.5C821 80.846 821.333 72.179 821 63.5C820.212 60.037 818.546 57.037 816 54.5C814.524 49.924 814.19 45.257 815 40.5C816.011 39.663 817.178 39.33 818.5 39.5C818.952 43.163 819.452 46.83 820 50.5C820.26 52.618 821.26 54.284 823 55.5C823.944 54.737 824.444 53.737 824.5 52.5C823.026 49.72 821.693 46.886 820.5 44C821.42 38.07 823.42 32.57 826.5 27.5C827.002 26.479 827.668 26.312 828.5 27C830.357 28.182 831.357 29.849 831.5 32C830.493 34.517 829.326 37.017 828 39.5C827.333 41.167 827.333 42.833 828 44.5C830.079 40.043 833.579 38.043 838.5 38.5C838.702 40.989 838.202 43.323 837 45.5C834.626 47.51 832.293 49.51 830 51.5C829.584 55.914 828.75 60.248 827.5 64.5C827.906 71.503 828.239 78.503 828.5 85.5C830.833 84.5 832.5 82.833 833.5 80.5C829.87 75.436 829.537 70.103 832.5 64.5C835.617 61.597 837.95 62.097 839.5 66C838.99 68.706 838.323 71.373 837.5 74C838.007 76.341 839.174 76.841 841 75.5C841.671 67.437 842.671 59.437 844 51.5C845.143 48.085 846.81 47.751 849 50.5C848.373 54.111 848.04 57.777 848 61.5C848.803 58.756 849.803 56.089 851 53.5C853.18 52.654 854.68 51.154 855.5 49C852.995 44.79 852.161 40.29 853 35.5C854.356 34.62 855.856 34.286 857.5 34.5C858.131 38.804 858.631 43.137 859 47.5C862.301 47.499 865.801 47.666 869.5 48C872.003 49.784 872.003 51.451 869.5 53C867.048 53.29 864.715 53.956 862.5 55C864.326 55.292 866.159 55.125 868 54.5C871.748 55.708 875.581 56.541 879.5 57C880.435 59.381 880.768 61.881 880.5 64.5C877.774 64.736 875.441 63.903 873.5 62C867.296 61.773 861.129 61.273 855 60.5C852.412 62.396 851.245 65.063 851.5 68.5C857.598 68.679 863.598 69.512 869.5 71C872.704 76.09 871.204 78.923 865 79.5C862.067 78.229 859.401 76.562 857 74.5C852.153 76.171 847.653 78.504 843.5 81.5C844.79 82.408 846.123 82.241 847.5 81C851.833 80.333 856.167 80.333 860.5 81C862.007 81.837 862.507 83.004 862 84.5C859.103 88.713 855.603 89.38 851.5 86.5C847.305 88.09 842.972 89.257 838.5 90C835.931 92.479 833.598 95.146 831.5 98C841.66 100.86 851.994 102.527 862.5 103C868.64 100.772 874.974 99.439 881.5 99C911.371 96.104 941.037 97.438 970.5 103C988.368 104.424 1006.03 103.258 1023.5 99.5ZM813.5 87.5C812.59 85.981 811.757 84.315 811 82.5C807.719 81.206 805.052 79.206 803 76.5C801 71.833 801 67.167 803 62.5C804.706 66.567 807.373 69.9 811 72.5C811.678 77.54 812.511 82.54 813.5 87.5ZM813.5 87.5C814.81 90.399 816.143 93.399 817.5 96.5C817.167 96.833 816.833 97.167 816.5 97.5C814.024 94.717 813.024 91.384 813.5 87.5Z" fill="black"/>
</svg>
